<svg width="162" height="46" viewBox="0 0 162 46" fill="none" xmlns="http://www.w3.org/2000/svg">
<path d="M1.35 1.92H16.23V6.12H10.86V24H6.51V6.12H1.35V1.92ZM15.7005 17.28C15.7005 15.94 16.0105 14.74 16.6305 13.68C17.2705 12.62 18.1605 11.79 19.3005 11.19C20.4405 10.57 21.7505 10.26 23.2305 10.26C24.7305 10.26 26.0305 10.57 27.1305 11.19C28.2305 11.79 29.0705 12.62 29.6505 13.68C30.2505 14.74 30.5505 15.94 30.5505 17.28C30.5505 18.62 30.2505 19.83 29.6505 20.91C29.0705 21.97 28.2305 22.81 27.1305 23.43C26.0305 24.05 24.7105 24.36 23.1705 24.36C21.7305 24.36 20.4405 24.08 19.3005 23.52C18.1805 22.96 17.3005 22.15 16.6605 21.09C16.0205 20.03 15.7005 18.76 15.7005 17.28ZM19.9305 17.31C19.9305 17.99 20.0705 18.61 20.3505 19.17C20.6305 19.71 21.0105 20.14 21.4905 20.46C21.9705 20.78 22.5105 20.94 23.1105 20.94C23.7705 20.94 24.3405 20.78 24.8205 20.46C25.3005 20.14 25.6705 19.71 25.9305 19.17C26.1905 18.61 26.3205 17.99 26.3205 17.31C26.3205 16.61 26.1905 15.99 25.9305 15.45C25.6705 14.91 25.3005 14.48 24.8205 14.16C24.3405 13.84 23.7705 13.68 23.1105 13.68C22.5105 13.68 21.9705 13.84 21.4905 14.16C21.0105 14.48 20.6305 14.91 20.3505 15.45C20.0705 15.99 19.9305 16.61 19.9305 17.31ZM38.0892 24.63C36.9092 24.63 35.9192 24.27 35.1192 23.55C34.3192 22.81 33.8992 21.86 33.8592 20.7V10.89H38.0592V19.14C38.0992 19.72 38.2492 20.19 38.5092 20.55C38.7692 20.89 39.2092 21.06 39.8292 21.06C40.4492 21.06 40.9792 20.85 41.4192 20.43C41.8792 20.01 42.2292 19.44 42.4692 18.72C42.7292 17.98 42.8592 17.15 42.8592 16.23V10.89H47.0592V24H43.2492L42.9192 21.6L42.9792 21.87C42.6792 22.41 42.2992 22.89 41.8392 23.31C41.3792 23.73 40.8292 24.05 40.1892 24.27C39.5692 24.51 38.8692 24.63 38.0892 24.63ZM55.1588 10.89L55.5488 14.49L55.4588 13.95C55.8388 13.17 56.3588 12.51 57.0188 11.97C57.6788 11.41 58.3288 10.98 58.9688 10.68C59.6288 10.38 60.1288 10.23 60.4688 10.23L60.2588 14.43C59.2788 14.31 58.4388 14.47 57.7388 14.91C57.0388 15.35 56.4988 15.93 56.1188 16.65C55.7388 17.37 55.5488 18.11 55.5488 18.87V24H51.3788V10.89H55.1588Z" fill="#F7540B"/>
<path d="M62.8734 1.92H77.7534V6.12H72.3834V24H68.0334V6.12H62.8734V1.92ZM83.2545 10.89L83.6445 14.49L83.5545 13.95C83.9345 13.17 84.4545 12.51 85.1145 11.97C85.7745 11.41 86.4245 10.98 87.0645 10.68C87.7245 10.38 88.2245 10.23 88.5645 10.23L88.3545 14.43C87.3745 14.31 86.5345 14.47 85.8345 14.91C85.1345 15.35 84.5945 15.93 84.2145 16.65C83.8345 17.37 83.6445 18.11 83.6445 18.87V24H79.4745V10.89H83.2545ZM96.8597 24.36C95.6397 24.36 94.5297 24.12 93.5297 23.64C92.5497 23.14 91.7697 22.38 91.1897 21.36C90.6097 20.34 90.3197 19.04 90.3197 17.46C90.3197 15.98 90.6197 14.7 91.2197 13.62C91.8197 12.54 92.6097 11.71 93.5897 11.13C94.5697 10.53 95.6097 10.23 96.7097 10.23C98.0097 10.23 98.9897 10.45 99.6497 10.89C100.33 11.31 100.89 11.78 101.33 12.3L101.15 12.81L101.54 10.89H105.44V24H101.24V21.15L101.57 22.05C101.53 22.05 101.41 22.17 101.21 22.41C101.01 22.63 100.71 22.9 100.31 23.22C99.9297 23.52 99.4497 23.78 98.8697 24C98.3097 24.24 97.6397 24.36 96.8597 24.36ZM98.0597 20.94C98.5597 20.94 99.0097 20.87 99.4097 20.73C99.8097 20.57 100.16 20.35 100.46 20.07C100.76 19.77 101.02 19.4 101.24 18.96V15.75C101.08 15.31 100.84 14.94 100.52 14.64C100.2 14.32 99.8197 14.08 99.3797 13.92C98.9397 13.74 98.4497 13.65 97.9097 13.65C97.3097 13.65 96.7497 13.81 96.2297 14.13C95.7297 14.43 95.3297 14.85 95.0297 15.39C94.7297 15.93 94.5797 16.55 94.5797 17.25C94.5797 17.95 94.7397 18.58 95.0597 19.14C95.3797 19.7 95.7997 20.14 96.3197 20.46C96.8597 20.78 97.4397 20.94 98.0597 20.94ZM115.767 24.27L107.907 10.89H112.887L117.357 19.95L114.777 19.86L118.647 10.89H123.327L115.887 24.27H115.767ZM131.803 24.36C130.203 24.36 128.843 24.06 127.723 23.46C126.623 22.86 125.783 22.03 125.203 20.97C124.623 19.91 124.333 18.69 124.333 17.31C124.333 15.99 124.673 14.8 125.353 13.74C126.033 12.68 126.943 11.84 128.083 11.22C129.223 10.58 130.493 10.26 131.893 10.26C133.773 10.26 135.313 10.81 136.513 11.91C137.733 12.99 138.523 14.56 138.883 16.62L128.683 19.86L127.753 17.58L135.133 15.09L134.263 15.48C134.103 14.96 133.813 14.51 133.393 14.13C132.993 13.73 132.383 13.53 131.563 13.53C130.943 13.53 130.393 13.68 129.913 13.98C129.453 14.26 129.093 14.67 128.833 15.21C128.593 15.73 128.473 16.35 128.473 17.07C128.473 17.89 128.623 18.58 128.923 19.14C129.223 19.68 129.633 20.09 130.153 20.37C130.673 20.65 131.253 20.79 131.893 20.79C132.353 20.79 132.793 20.71 133.213 20.55C133.653 20.39 134.083 20.18 134.503 19.92L136.363 23.04C135.663 23.44 134.903 23.76 134.083 24C133.283 24.24 132.523 24.36 131.803 24.36ZM141.935 0.329999H146.135V24H141.935V0.329999ZM154.721 24.27C153.641 24.27 152.631 24.08 151.691 23.7C150.771 23.32 149.991 22.79 149.351 22.11L151.091 19.8C151.731 20.38 152.321 20.8 152.861 21.06C153.421 21.3 153.921 21.42 154.361 21.42C154.701 21.42 155.001 21.39 155.261 21.33C155.541 21.25 155.761 21.14 155.921 21C156.081 20.84 156.161 20.64 156.161 20.4C156.161 20.06 156.021 19.79 155.741 19.59C155.481 19.39 155.141 19.23 154.721 19.11C154.301 18.97 153.851 18.83 153.371 18.69C152.171 18.31 151.301 17.76 150.761 17.04C150.241 16.3 149.981 15.5 149.981 14.64C149.981 13.98 150.151 13.32 150.491 12.66C150.851 11.98 151.411 11.42 152.171 10.98C152.951 10.52 153.951 10.29 155.171 10.29C156.271 10.29 157.201 10.4 157.961 10.62C158.721 10.84 159.441 11.2 160.121 11.7L158.531 14.16C158.151 13.86 157.721 13.61 157.241 13.41C156.781 13.19 156.351 13.07 155.951 13.05C155.591 13.03 155.281 13.07 155.021 13.17C154.781 13.27 154.591 13.4 154.451 13.56C154.311 13.72 154.241 13.89 154.241 14.07C154.221 14.45 154.361 14.75 154.661 14.97C154.981 15.19 155.381 15.36 155.861 15.48C156.341 15.6 156.811 15.74 157.271 15.9C157.911 16.1 158.461 16.37 158.921 16.71C159.381 17.05 159.731 17.46 159.971 17.94C160.231 18.4 160.361 18.96 160.361 19.62C160.361 20.42 160.151 21.18 159.731 21.9C159.331 22.6 158.711 23.17 157.871 23.61C157.051 24.05 156.001 24.27 154.721 24.27Z" fill="white"/>
<path d="M108.665 30.96C109.815 30.96 110.73 31.195 111.41 31.665C112.09 32.125 112.43 32.815 112.43 33.735C112.43 34.415 112.26 34.985 111.92 35.445C111.59 35.895 111.135 36.235 110.555 36.465C109.985 36.685 109.33 36.795 108.59 36.795L108.245 35.625C109.155 35.625 109.96 35.75 110.66 36C111.37 36.25 111.93 36.61 112.34 37.08C112.75 37.54 112.955 38.095 112.955 38.745C112.955 39.345 112.845 39.855 112.625 40.275C112.415 40.685 112.125 41.02 111.755 41.28C111.395 41.53 110.985 41.715 110.525 41.835C110.065 41.945 109.59 42 109.1 42H105.425V30.96H108.665ZM108.92 35.475C109.35 35.475 109.665 35.345 109.865 35.085C110.075 34.825 110.18 34.53 110.18 34.2C110.18 33.82 110.05 33.535 109.79 33.345C109.54 33.155 109.2 33.06 108.77 33.06H107.6V35.475H108.92ZM108.995 39.975C109.315 39.975 109.605 39.935 109.865 39.855C110.125 39.765 110.33 39.63 110.48 39.45C110.63 39.26 110.705 39.025 110.705 38.745C110.705 38.425 110.615 38.185 110.435 38.025C110.255 37.855 110.02 37.74 109.73 37.68C109.45 37.61 109.155 37.575 108.845 37.575H107.6V39.975H108.995ZM114.282 38.64C114.282 37.97 114.437 37.37 114.747 36.84C115.067 36.31 115.512 35.895 116.082 35.595C116.652 35.285 117.307 35.13 118.047 35.13C118.797 35.13 119.447 35.285 119.997 35.595C120.547 35.895 120.967 36.31 121.257 36.84C121.557 37.37 121.707 37.97 121.707 38.64C121.707 39.31 121.557 39.915 121.257 40.455C120.967 40.985 120.547 41.405 119.997 41.715C119.447 42.025 118.787 42.18 118.017 42.18C117.297 42.18 116.652 42.04 116.082 41.76C115.522 41.48 115.082 41.075 114.762 40.545C114.442 40.015 114.282 39.38 114.282 38.64ZM116.397 38.655C116.397 38.995 116.467 39.305 116.607 39.585C116.747 39.855 116.937 40.07 117.177 40.23C117.417 40.39 117.687 40.47 117.987 40.47C118.317 40.47 118.602 40.39 118.842 40.23C119.082 40.07 119.267 39.855 119.397 39.585C119.527 39.305 119.592 38.995 119.592 38.655C119.592 38.305 119.527 37.995 119.397 37.725C119.267 37.455 119.082 37.24 118.842 37.08C118.602 36.92 118.317 36.84 117.987 36.84C117.687 36.84 117.417 36.92 117.177 37.08C116.937 37.24 116.747 37.455 116.607 37.725C116.467 37.995 116.397 38.305 116.397 38.655ZM122.851 38.64C122.851 37.97 123.006 37.37 123.316 36.84C123.636 36.31 124.081 35.895 124.651 35.595C125.221 35.285 125.876 35.13 126.616 35.13C127.366 35.13 128.016 35.285 128.566 35.595C129.116 35.895 129.536 36.31 129.826 36.84C130.126 37.37 130.276 37.97 130.276 38.64C130.276 39.31 130.126 39.915 129.826 40.455C129.536 40.985 129.116 41.405 128.566 41.715C128.016 42.025 127.356 42.18 126.586 42.18C125.866 42.18 125.221 42.04 124.651 41.76C124.091 41.48 123.651 41.075 123.331 40.545C123.011 40.015 122.851 39.38 122.851 38.64ZM124.966 38.655C124.966 38.995 125.036 39.305 125.176 39.585C125.316 39.855 125.506 40.07 125.746 40.23C125.986 40.39 126.256 40.47 126.556 40.47C126.886 40.47 127.171 40.39 127.411 40.23C127.651 40.07 127.836 39.855 127.966 39.585C128.096 39.305 128.161 38.995 128.161 38.655C128.161 38.305 128.096 37.995 127.966 37.725C127.836 37.455 127.651 37.24 127.411 37.08C127.171 36.92 126.886 36.84 126.556 36.84C126.256 36.84 125.986 36.92 125.746 37.08C125.506 37.24 125.316 37.455 125.176 37.725C125.036 37.995 124.966 38.305 124.966 38.655ZM131.931 42V30.165H134.031V42H131.931ZM135.696 37.545L138.666 42H136.221L134.316 38.745L135.696 37.545ZM133.401 40.185L133.191 38.19L137.151 35.28L138.426 36.405L133.401 40.185ZM140.119 35.445H142.219V42H140.119V35.445ZM140.074 33.12C140.074 32.81 140.194 32.555 140.434 32.355C140.684 32.155 140.949 32.055 141.229 32.055C141.509 32.055 141.764 32.155 141.994 32.355C142.234 32.555 142.354 32.81 142.354 33.12C142.354 33.43 142.234 33.685 141.994 33.885C141.764 34.075 141.509 34.17 141.229 34.17C140.949 34.17 140.684 34.075 140.434 33.885C140.194 33.685 140.074 33.43 140.074 33.12ZM146.287 35.445L146.452 36.615L146.422 36.51C146.652 36.1 146.977 35.77 147.397 35.52C147.817 35.26 148.332 35.13 148.942 35.13C149.562 35.13 150.077 35.315 150.487 35.685C150.907 36.045 151.122 36.515 151.132 37.095V42H149.032V37.875C149.022 37.585 148.942 37.355 148.792 37.185C148.652 37.005 148.412 36.915 148.072 36.915C147.752 36.915 147.472 37.02 147.232 37.23C146.992 37.44 146.807 37.725 146.677 38.085C146.547 38.445 146.482 38.86 146.482 39.33V42H144.382V35.445H146.287ZM156.678 45.3C156.088 45.3 155.588 45.23 155.178 45.09C154.778 44.95 154.438 44.78 154.158 44.58C153.878 44.38 153.628 44.19 153.408 44.01L154.638 42.57C154.868 42.78 155.133 42.98 155.433 43.17C155.743 43.37 156.148 43.47 156.648 43.47C156.978 43.47 157.283 43.41 157.563 43.29C157.853 43.18 158.083 43.015 158.253 42.795C158.433 42.575 158.523 42.3 158.523 41.97V40.53L158.598 40.905C158.438 41.245 158.148 41.545 157.728 41.805C157.308 42.055 156.758 42.18 156.078 42.18C155.488 42.18 154.938 42.03 154.428 41.73C153.928 41.42 153.528 41.005 153.228 40.485C152.928 39.955 152.778 39.355 152.778 38.685C152.778 37.995 152.938 37.385 153.258 36.855C153.578 36.315 153.993 35.89 154.503 35.58C155.013 35.27 155.553 35.115 156.123 35.115C156.693 35.115 157.183 35.2 157.593 35.37C158.013 35.53 158.328 35.73 158.538 35.97L158.463 36.165L158.688 35.445H160.623V42C160.623 42.64 160.443 43.205 160.083 43.695C159.723 44.195 159.243 44.585 158.643 44.865C158.053 45.155 157.398 45.3 156.678 45.3ZM154.893 38.625C154.893 38.975 154.973 39.29 155.133 39.57C155.293 39.85 155.508 40.07 155.778 40.23C156.058 40.39 156.368 40.47 156.708 40.47C156.998 40.47 157.253 40.435 157.473 40.365C157.703 40.285 157.903 40.175 158.073 40.035C158.253 39.885 158.403 39.7 158.523 39.48V37.875C158.433 37.655 158.298 37.47 158.118 37.32C157.938 37.16 157.728 37.04 157.488 36.96C157.258 36.87 156.998 36.825 156.708 36.825C156.368 36.825 156.058 36.905 155.778 37.065C155.508 37.215 155.293 37.425 155.133 37.695C154.973 37.965 154.893 38.275 154.893 38.625Z" fill="#F7540B"/>
</svg>
